<?xml version="1.0" standalone="no"?>
<!DOCTYPE svg PUBLIC "-//W3C//DTD SVG 20010904//EN"
 "http://www.w3.org/TR/2001/REC-SVG-20010904/DTD/svg10.dtd">
<svg version="1.0" xmlns="http://www.w3.org/2000/svg"
 width="183.000000pt" height="183.000000pt" viewBox="0 0 183.000000 183.000000"
 preserveAspectRatio="xMidYMid meet">
<metadata>
Created by potrace 1.11, written by Peter Selinger 2001-2013
</metadata>
<g transform="translate(0.000000,183.000000) scale(0.100000,-0.100000)"
fill="#000000" stroke="none">
<path d="M1074 1820 c-14 -5 -28 -27 -39 -57 -9 -26 -22 -60 -27 -75 -29 -80
-80 -76 -288 20 -148 68 -238 83 -333 56 -105 -31 -210 -123 -242 -214 -18
-51 -20 -167 -3 -221 38 -127 244 -222 296 -138 12 19 12 19 -15 6 -32 -17
-99 -15 -132 2 -46 25 -67 140 -37 199 41 78 124 109 301 112 173 3 333 16
438 36 15 2 16 0 7 -10 -17 -21 -147 -108 -225 -151 -101 -55 -171 -113 -211
-173 -45 -66 -56 -105 -49 -164 4 -27 2 -56 -5 -68 -6 -11 -27 -64 -46 -117
-50 -141 -84 -170 -138 -117 -51 52 -66 164 -31 237 22 48 67 80 148 109 69
24 84 37 45 39 -109 5 -198 -57 -233 -162 -25 -73 -27 -176 -6 -224 63 -142
256 -182 369 -75 12 11 22 24 22 28 0 4 4 13 9 20 6 10 16 5 43 -20 20 -18 58
-54 86 -80 60 -54 77 -98 55 -141 -9 -18 -20 -27 -29 -23 -8 3 -58 18 -112 33
-131 36 -292 39 -364 6 -67 -30 -133 -96 -167 -164 -26 -52 -30 -70 -28 -134
2 -86 19 -116 88 -155 38 -22 56 -25 139 -25 88 0 100 3 165 35 42 20 92 56
124 88 l54 54 66 -31 66 -31 19 28 c24 32 113 123 141 143 12 8 34 32 50 53
l30 39 2 275 c2 211 5 277 15 284 23 15 82 0 106 -27 21 -25 22 -33 23 -233 1
-224 2 -240 25 -321 20 -70 35 -93 108 -168 54 -57 86 -77 86 -55 0 12 91 105
134 138 52 38 125 116 126 132 0 17 -6 15 -39 -9 -23 -17 -33 -19 -48 -10 -46
24 -64 76 -84 251 -6 60 -20 123 -32 148 -31 67 -101 138 -165 167 l-57 26 78
75 c42 42 88 90 102 108 36 47 58 144 53 235 -4 70 -9 87 -67 202 -35 69 -70
135 -80 147 l-16 22 -144 -101 c-112 -78 -142 -95 -137 -77 4 13 11 37 16 53
5 17 16 56 26 88 15 50 15 60 3 72 -9 8 -21 10 -35 5z m-23 -352 c1 -7 2 -103
3 -213 l2 -200 -27 -16 c-18 -12 -26 -25 -25 -42 2 -27 22 -57 40 -57 8 0 11
-56 11 -203 0 -195 -1 -204 -23 -235 -27 -37 -70 -62 -107 -62 l-25 0 19 38
c31 60 43 121 47 224 3 124 -10 178 -76 308 -51 100 -54 109 -57 190 -4 134
33 199 142 251 68 33 74 34 76 17z m121 -59 c80 -90 114 -142 129 -199 17 -64
5 -116 -37 -158 -33 -33 -35 -33 -104 -29 -38 2 -73 6 -76 10 -3 3 -7 105 -8
226 -1 261 -2 259 96 150z m-578 -1185 c39 -10 66 -22 66 -29 0 -20 -89 -95
-140 -118 -49 -22 -154 -26 -190 -7 -51 27 -49 104 3 135 61 36 163 44 261 19z"/>
</g>
</svg>
